<mxfile host="app.diagrams.net" modified="2023-04-28T07:18:41.384Z" agent="Mozilla/5.0 (Windows NT 10.0; Win64; x64) AppleWebKit/537.36 (KHTML, like Gecko) Chrome/112.0.0.0 Safari/537.36" version="21.2.2" etag="jfSZDZwV-UOJmKN-jDj_" type="github">
  <diagram name="Page-1" id="yoDy_J4Ts5u2qe-XB-aB">
    <mxGraphModel>
      <root>
        <mxCell id="0" />
        <mxCell id="1" parent="0" />
      </root>
    </mxGraphModel>
  </diagram>
</mxfile>
